<svg xmlns="http://www.w3.org/2000/svg" width="160" height="190" fill="none" viewBox="0 0 160 190">
    <path fill="#1B1B20" d="M74.337 139.507a1.132 1.132 0 1 0 .876-1.339 1.143 1.143 0 0 0-.876 1.339Zm45.629-71.979a.926.926 0 1 0-.157-1.3.933.933 0 0 0 .157 1.3ZM58.673 70.16a2.126 2.126 0 1 0-.361-2.986 2.146 2.146 0 0 0 .361 2.985Zm38.58 67.636a2.092 2.092 0 1 0-.356-2.938 2.111 2.111 0 0 0 .356 2.938Zm-77.049-.475a1 1 0 1 0 .775-1.183 1.01 1.01 0 0 0-.775 1.183Zm112.631-12.944a.786.786 0 1 0 .609-.93.794.794 0 0 0-.609.93ZM64.204 8.388a1 1 0 1 0 .775-1.184 1.01 1.01 0 0 0-.775 1.184Zm34.486 37.64a.925.925 0 1 0 1.142-1.457.925.925 0 0 0-1.142 1.457Zm48.982 64.814a.787.787 0 1 0 .608-.93.793.793 0 0 0-.608.93ZM28.204 176.278a1 1 0 1 0 .775-1.184 1.01 1.01 0 0 0-.775 1.184Z" />
    <path fill="#1B1B20" d="M74.337 139.507a1.132 1.132 0 1 0 .876-1.339 1.143 1.143 0 0 0-.876 1.339Zm45.629-71.979a.926.926 0 1 0-.157-1.3.933.933 0 0 0 .157 1.3ZM58.673 70.16a2.126 2.126 0 1 0-.361-2.986 2.146 2.146 0 0 0 .361 2.985Zm38.58 67.636a2.092 2.092 0 1 0-.356-2.938 2.111 2.111 0 0 0 .356 2.938Zm-77.049-.475a1 1 0 1 0 .775-1.183 1.01 1.01 0 0 0-.775 1.183Zm112.631-12.944a.786.786 0 1 0 .609-.93.794.794 0 0 0-.609.93ZM64.204 8.388a1 1 0 1 0 .775-1.184 1.01 1.01 0 0 0-.775 1.184Zm34.486 37.64a.925.925 0 1 0 1.142-1.457.925.925 0 0 0-1.142 1.457Zm-75.961-16a.343.343 0 1 0 .422-.54.343.343 0 0 0-.422.54Zm124.943 80.814a.787.787 0 1 0 .608-.93.793.793 0 0 0-.608.93ZM28.204 176.278a1 1 0 1 0 .775-1.184 1.01 1.01 0 0 0-.775 1.184Zm51.443-64.805c.543-.014.899-.264 1.248-.755.35-.49.519-.976.5-1.697.105-2.891.398-5.546.503-8.437-.032-1.203-.788-2.387-1.874-2.359-1.087.029-1.786 1.01-1.748 2.453-.105 2.891-.217 5.541-.503 8.437l.006.24c.032 1.203.962 2.141 1.868 2.118Z" />
    <path fill="#1B1B20" d="m74.894 106.7 4.678-.121c.72-.019 1.44-.038 2.344.121.54-.014 1.26-.033 1.804.135l.36-.01c.545.168.905.159 1.435-.219.355-.19.705-.563.871-1.112.166-.55.156-.913-.218-1.448a1.845 1.845 0 0 0-1.103-.88c-.545-.168-1.085-.154-1.63-.322l-1.259.033c-.72.019-1.444-.144-2.164-.126l-4.858.126a1.81 1.81 0 0 0-1.752 1.863c-.331 1.098.413 1.988 1.492 1.96Z" />
</svg>