<svg xmlns="http://www.w3.org/2000/svg" width="159" height="171" fill="none" viewBox="0 0 159 171">
    <path fill="#fff" d="M7.692 95.63c.346 1.303.808 2.607 1.5 3.674 1.268 2.727 3.229 5.098 5.882 6.757 2.076 1.304 4.152 2.371 6.228 3.557 2.076 1.185 4.036 2.489 6.112 3.675 4.268 2.608 8.766 4.978 12.917 7.705 3.806 2.371 7.843 4.149 11.65 6.283 2.652 1.422 5.19 2.963 7.957 4.267 2.653 1.304 5.42 2.49 8.073 3.675a123.16 123.16 0 0 0 5.767 2.608c2.537 1.186 5.19 2.253 7.843 3.082 3.575 1.186 7.612 1.541 11.303.356 3.229-1.067 6.458-2.845 8.765-5.453 2.998-3.319 3.921-5.335 5.42-9.484 1.038-2.726 1.269-5.453 1.615-8.416.346-2.371.346-4.742.115-7.231-.346-3.083-.692-6.165-1.268-9.128-.577-3.32-1.269-6.639-1.846-9.84 0-.474-.115-.948-.115-1.422-.115-1.778-.346-3.556-.576-5.335-.346-3.2-.808-6.282-1.615-9.365-.692-2.489-1.153-4.978-1.499-7.468-.692-4.979-1.5-9.84-2.653-14.7l-1.73-6.4c-.692-2.372-1.615-4.743-2.884-6.995-1.96-3.32-4.267-5.809-7.496-7.942-3.345-2.134-6.805-2.964-10.61-3.083-4.037-.118-7.613 1.186-11.073 3.083-3.46 1.778-6.574 4.267-9.573 6.757-2.306 1.896-4.382 4.149-6.574 6.164-1.153 1.067-2.421 2.252-3.69 3.32-1.038.948-2.076 2.014-3.23 2.963-2.537 2.015-5.19 3.912-7.957 5.571-1.846 1.186-3.806 2.371-5.652 3.557-1.845 1.304-3.575 2.726-5.19 4.386-.346.355-.576.711-.922.948-.923.712-1.73 1.304-2.422 2.134a14.156 14.156 0 0 1-1.846 1.897c-1.268.948-2.537 2.134-3.46 3.438-1.5 2.015-2.998 3.912-4.152 6.164-.346.593-.576 1.185-.922 1.778a17.133 17.133 0 0 0-2.076 5.69c0-.356.115-.593.115-.948-.346 1.896-.692 3.438-.923 5.69.346 1.304.462 2.608.692 4.03Zm66.432 8.89c-2.998-1.422-5.651-3.2-8.534-4.623-7.382-3.793-14.533-7.942-21.683-12.21.23-.237.461-.474.692-.593.23-.237.461-.474.692-.593l5.19-3.2c2.076-1.304 4.036-2.727 5.997-4.268 2.883-2.252 5.767-4.505 8.535-6.875 1.845-1.66 3.69-3.201 5.42-4.86.346-.356.692-.712 1.154-1.068l.346 1.423c.922 4.86 1.384 9.84 2.537 14.7.462 2.133 1.038 4.267 1.384 6.52 0 .118 0 .355.115.474.462 3.912.577 7.705 1.385 11.498.346 1.897.807 3.794 1.153 5.691-1.615-.712-2.999-1.423-4.383-2.016Z" />
    <path fill="#1B1B20" d="M75.083 75.165c-.18-.931-1.11-1.717-2.234-1.5-.937.181-1.73 1.107-1.514 2.224.18.931 1.11 1.717 2.234 1.5a2.444 2.444 0 0 0 1.514-2.224Zm-34.656 56.689c-.18-.931-1.11-1.717-2.233-1.499-.938.181-1.73 1.106-1.515 2.223.18.931 1.11 1.717 2.234 1.5.937-.181 1.73-1.107 1.514-2.224Zm32.451 29.074c-.18-.931-1.11-1.717-2.234-1.5-.937.181-1.73 1.107-1.514 2.224.18.931 1.11 1.717 2.234 1.5.937-.182 1.543-1.071 1.514-2.224ZM115.895 23.22c-.18-.93-1.109-1.717-2.234-1.5-.937.182-1.73 1.108-1.514 2.225.18.93 1.109 1.717 2.234 1.5 1.124-.218 1.694-1.294 1.514-2.225ZM71.55 37.119c-.035-.187-.295-.523-.483-.487-.187.036-.526.295-.49.482.036.186.296.523.483.486.188-.036.527-.295.49-.481Zm10.97-7.252c-.036-.186-.296-.523-.484-.487-.188.037-.527.296-.49.482.035.186.295.523.483.487.187-.037.526-.296.49-.482Zm.8-10.207c-.036-.186-.296-.522-.483-.486-.188.037-.527.295-.491.482.036.186.295.523.483.486.188-.036.527-.295.49-.481Zm1.715 29.991c-.036-.186-.295-.523-.483-.486-.188.036-.527.295-.491.481.036.187.296.523.483.487.188-.037.527-.295.491-.482ZM67.863 91.035c-.252-1.303-1.405-2.24-2.717-1.986-1.312.254-2.256 1.402-2.005 2.705.252 1.303 1.405 2.24 2.717 1.986 1.312-.254 2.257-1.402 2.005-2.705Zm14.082-51.49c-.108-.559-.555-.858-1.117-.75-.562.109-.865.554-.757 1.112.108.559.554.859 1.117.75.562-.109.829-.74.757-1.112Zm-53.849-3.493c-.288-1.49-1.665-2.575-3.351-2.25-1.5.29-2.596 1.661-2.272 3.337.288 1.49 1.665 2.575 3.351 2.249 1.463-.476 2.372-1.81 2.272-3.336Z" />
    <path fill="#1B1B20" d="M75.083 75.165c-.18-.931-1.11-1.717-2.234-1.5-.937.181-1.73 1.107-1.514 2.224.18.931 1.11 1.717 2.234 1.5a2.444 2.444 0 0 0 1.514-2.224ZM89.61 87.923c-2.891-.407-5.933.249-8.442 1.786-1.204.682-2.285 1.55-3.365 2.42-1.317 1.077-2.423 2.39-3.355 3.804l-.447.775a90.613 90.613 0 0 0-.734 1.873c-.274.875-.46 1.801-.424 2.74.011 1.385.159 2.733.58 4.009.755 2.503 2.156 4.69 3.843 6.582 1.86 1.993 4.242 3.483 6.835 4.406 1.452.494 2.917.765 4.394.814.447.029 1.03.021 1.527-.037 1.49-.173 2.855-.533 4.196-1.251 1.205-.683 2.385-1.724 3.341-2.779.907-.969 1.64-2.038 2.324-3.021.584-.811.945-1.637 1.268-2.598.572-1.392.884-2.934.699-4.419-.247-1.98-.866-3.715-1.709-5.465-.024-1.162-.557-2.043-1.313-2.94-.757-.895-1.6-1.842-2.357-2.738-.93-.996-1.996-1.956-3.212-2.658-1.13-.652-2.358-1.132-3.649-1.303Zm-.565 9.203c.508.524 1.103 1.097 1.612 1.62.124.187.111.409.235.595.447.832.98 1.714 1.376 2.632.148.545.384 1.14.445 1.635l-.05.086c-.012.222-.16.481-.173.703-.349.603-.697 1.206-1.131 1.758a10.39 10.39 0 0 1-1.715 1.766c-.05.086-.186.122-.323.158l-.273.072c-.447-.028-.807-.006-1.254-.035-.397-.114-.88-.279-1.278-.393-.608-.351-1.265-.616-1.91-1.103l-1.786-1.72-.855-1.527c-.15-.545-.347-1.004-.41-1.499-.036-.137.014-.223-.024-.359.05-.086.013-.222.063-.308l.646-1.12c.621-.675 1.28-1.213 1.988-1.838.745-.488 1.49-.976 2.272-1.328.323-.159.683-.18.956-.252.137-.036.36-.022.497-.058l.173.1c.484.165.745.315.919.415Zm-1.229-.48c-.223-.013-.31-.064-.534-.078.224.014.447.029.534.079Zm-6.173 5.278c-.013.222-.063.308-.075.531.013-.223.112-.395.075-.531Zm.16.323c-.012.222.112.408.1.631-.124-.187-.112-.409-.1-.631Z" />
</svg>