<svg xmlns="http://www.w3.org/2000/svg" fill="none" height="317" width="266">
    <path d="M95.7 270.6a12 12 0 001.5 3.7 16 16 0 005.9 6.8c2 1.3 4.1 2.3 6.2 3.5l6.1 3.7c4.3 2.6 8.8 5 13 7.7 3.7 2.4 7.8 4.1 11.6 6.3 2.6 1.4 5.2 3 8 4.2 2.6 1.4 5.4 2.5 8 3.7a123.2 123.2 0 0013.6 5.7 18.4 18.4 0 0020-5c3-3.4 4-5.4 5.5-9.6 1-2.7 1.3-5.4 1.6-8.4.4-2.4.4-4.7.1-7.2-.3-3.1-.7-6.2-1.2-9.1l-1.9-9.9v-1.4l-.7-5.3c-.3-3.2-.8-6.3-1.6-9.4a57 57 0 01-1.5-7.5 156.7 156.7 0 00-4.4-21 33 33 0 00-2.8-7 23 23 0 00-7.5-8c-3.4-2.1-6.8-3-10.7-3-4-.2-7.6 1-11 3a54.2 54.2 0 00-9.6 6.7c-2.3 2-4.4 4.2-6.6 6.2-1.1 1-2.4 2.3-3.7 3.3l-3.2 3c-2.5 2-5.2 4-8 5.6l-5.6 3.5a36.7 36.7 0 00-5.2 4.4l-1 1-2.3 2c-.6.8-1.2 1.4-1.9 2a16 16 0 00-3.4 3.4c-1.5 2-3 4-4.2 6.2l-1 1.8c-1 2-1.6 3.8-2 5.7l.1-1c-.3 2-.7 3.4-.9 5.7zm66.4 9c-3-1.5-5.6-3.3-8.5-4.7-7.4-3.8-14.5-8-21.7-12.2l.7-.6.7-.6 5.2-3.2c2-1.3 4-2.7 6-4.3l8.5-6.8c1.9-1.7 3.7-3.2 5.4-4.9l1.2-1 .3 1.4c1 4.8 1.4 9.8 2.6 14.7l1.4 6.5v.4c.5 4 .6 7.8 1.5 11.5l1.1 5.7-4.4-2z" fill="#f6f6f7" />
    <path d="M186.5 58.2C160-2.2 100.7 31.6 72.3 74.8S18 190 94.3 224.8c73.7 29.3 80.2-15 64.8-72.3s53.8-33.8 27.4-94.3z" stroke="#1b1b20" stroke-width="3" />
    <g fill="#1b1b20">
        <path d="M184.6 137.2a2 2 0 00-2 3.2c.7.5 2 .4 2.6-.6.3-.9 0-2-.6-2.6zm17.8 64a2 2 0 00-2 3.2c.8.5 2 .4 2.6-.6.5-.8.4-2-.6-2.6zm43.4-3.9a2 2 0 00-2 3.2c.8.5 2 .4 2.6-.6.5-.8.2-1.9-.6-2.6zM174.4 72a2 2 0 00-2 3.1 2 2 0 002-3.2zm-20.1 41.8h-.7v.7c.2.1.6.2.7 0s.2-.6 0-.7zm2.2-13h-.7c0 .2-.1.7 0 .8h.7c.1-.2.2-.6 0-.8zm-6.9-7.5h-.7v.7c.2.1.6.2.7 0zm23.1 19.2h-.7v.7c.2.1.6.2.7 0s.2-.6 0-.7zm18.5 40.8c-1-.7-2.6-.5-3.3.6-.7 1.2-.5 2.6.7 3.3 1 .7 2.5.5 3.3-.6.7-1.1.5-2.6-.7-3.3zm-28-45.4c-.5-.3-1-.2-1.3.3s-.2 1 .3 1.3 1 .2 1.3-.3 0-1.1-.3-1.3zm-68 23.8c-1.3-.8-3-.5-4 1-.8 1.2-.5 3 1 3.9 1.2.8 3 .5 3.8-1 .7-1.3.3-3-.8-3.9z" />
        <path d="M184.6 137.2a2 2 0 00-2 3.2c.7.5 2 .4 2.6-.6.3-.9 0-2-.6-2.6zM138.8 95c-3.5-.4-7.1.4-10.1 2.2a20 20 0 00-4 3c-1.6 1.2-3 2.8-4 4.5-.3.3-.4.6-.6 1l-.9 2.2c-.3 1-.5 2.1-.5 3.3 0 1.6.2 3.2.7 4.8a20.7 20.7 0 0012.8 13.2 18.2 18.2 0 007.1.9c1.8-.2 3.4-.7 5-1.5a17 17 0 004-3.3 30 30 0 004.4-6.7c.6-1.8 1-3.6.8-5.4a21 21 0 00-2-6.6c0-1.3-.7-2.4-1.6-3.5l-2.9-3.3a17 17 0 00-3.8-3.2 12 12 0 00-4.4-1.5zm-.7 11.1l2 2c.1.2.1.5.3.7l1.6 3.1c.2.7.5 1.4.5 2v.1l-.2.8-1.4 2.2-2 2c-.1.2-.3.2-.4.3h-1.9l-1.5-.5c-.7-.4-1.5-.7-2.3-1.3l-2.1-2-1-1.9-.6-1.8v-.8l.9-1.3a17 17 0 015.1-3.8l1.1-.3h.8zm-1.4-.5l-.7-.1h.7zm-7.4 6.3l-.1.6v-.6zm.1.4l.2.7c-.2-.2-.2-.5-.2-.7z" />
    </g>
</svg>