<svg xmlns="http://www.w3.org/2000/svg" fill="none" height="230" width="191">
    <path d="M84.4 104.2a58.6 58.6 0 00-29.1 26.2 117 117 0 00-7.8 17.2 77 77 0 00-4.5 22.6v4.1l1.4 9a36 36 0 004.5 11.8 59.5 59.5 0 0011.4 14.5c8.6 8.2 19 13.6 30 17.2 11.8 3.6 24.5 4 36.8 1.8a68.5 68.5 0 0025-10.4 51 51 0 0013.6-14.5 64.9 64.9 0 006.8-18.5c1.4-6 1.9-11.8 2.3-17.2.5-4.5 0-8.6-.9-13.1a40.2 40.2 0 00-7.3-19 78.4 78.4 0 00-19-17.7 21.3 21.3 0 00-11.9-8.6l-15.4-5.4c-6-1.8-12.3-3.2-18.7-3.2-5.9 0-11.8 1-17.2 3.2zm18.6 37.5c3.2 1 6.8 1.8 10 2.7 1 .5 1.4 1.4 2.3 1.9 3.6 2.2 7.7 4.5 11.3 7.2 1.9 1.8 4.1 3.6 5.5 5.4v.5c.4.9.4 2.2.9 3.1 0 3.2 0 6.4-.5 9.5-.4 3.7-1.3 7.3-2.7 11 0 .4-.4.8-.9 1.3l-.9.9-5 2.7-6 1.3c-3 0-6.3.5-10 0l-10.8-2.7-6.8-4c-1.9-1.9-3.7-3.2-5-5-.5-.5-.5-1-1-1.4 0-.4-.4-.9-.4-1.3v-6c1-4 2.3-7.6 3.6-11.7 1.9-3.6 3.7-7.2 6-10.4.9-1.4 2.2-2.3 3.1-3.2l1.8-1.3h1c2.2-.5 3.6-.5 4.5-.5zm-6 1c-.8.4-1.3.4-2.2.8 1-.4 1.8-.9 2.3-.9zm-12.2 34.8l1 2.2c-.5-.9-.5-1.8-1-2.2zm1.4.9c.4.9 1.3 1.3 1.8 2.2-1-.4-1.4-1.3-1.8-2.2z" fill="#eeeeef" />
    <g fill="#1b1b20">
        <path d="M109.3 85.2a2 2 0 00-2 3.2c.8.5 2 .4 2.6-.6.3-.9.1-2-.6-2.6zm-2.2 74a2 2 0 00-2 3.2c.8.5 2 .4 2.6-.6.5-.8.4-2-.6-2.6zm43.4-3.9a2 2 0 00-2 3.2c.8.5 2 .4 2.6-.6.5-.8.3-1.9-.6-2.6zM99.1 20a2 2 0 00-2 3.2 2 2 0 002-3.3zM79 61.8h-.6c-.1.2-.2.6 0 .7s.6.2.7 0v-.7zm2.2-13h-.6c-.1.2-.2.7 0 .8h.7c0-.2.1-.6 0-.8zm-6.9-7.5h-.7v.7c.2.1.6.2.7 0s.2-.6 0-.7zm23.1 19.2h-.7v.7c.2.1.7.2.8 0v-.7zM96 111.3c-1.1-.7-2.6-.5-3.3.6s-.5 2.6.6 3.3 2.6.5 3.3-.6.5-2.6-.6-3.3zm-8-55.4c-.5-.3-1-.2-1.4.3-.3.5-.2 1 .3 1.3s1 .2 1.3-.3 0-1.1-.3-1.3zM19.9 79.7c-1.3-.8-3-.5-4 1-.7 1.2-.5 3 1 3.9 1.2.8 3 .5 3.9-1 .6-1.3.3-3-.9-3.9z" />
        <path d="M109.3 85.2a2 2 0 00-2 3.2c.8.5 2 .4 2.6-.6.3-.9.1-2-.6-2.6z" />
    </g>
</svg>