<svg xmlns="http://www.w3.org/2000/svg" fill="none" height="365" width="256">
    <path d="M91.4 149.1c-20 8.1-37 23.5-47.4 42.6a189 189 0 00-12.6 27.8 124.3 124.3 0 00-7.4 36.7v6.6a667 667 0 002.2 14.6 60.1 60.1 0 007.4 19.1A96.4 96.4 0 0052.1 320c14.1 13.2 31.1 22 48.9 27.8a128 128 0 0060 3 112 112 0 0040.7-17 81.3 81.3 0 0022.2-23.4 104 104 0 0011.1-30c2.2-9.6 3-19 3.7-27.9.8-7.3 0-14-1.5-21.3-1.5-11-5.2-22-11.8-30.7a127.4 127.4 0 00-31.1-28.6c-4.5-7.4-11.1-11-19.3-14-8.1-2.9-17-5.8-25.1-8.8a107 107 0 00-30.4-5.1c-9.6 0-19.2 1.5-28.1 5.1zm30.3 60.9l16.3 4.4c1.5.7 2.2 2.2 3.7 3 6 3.6 12.6 7.3 18.5 11.7 3 2.9 6.7 5.8 9 8.7v.8c.7 1.4.7 3.6 1.4 5.1 0 5.1 0 10.3-.7 15.4a76.7 76.7 0 01-4.5 17.6c0 .7-.7 1.5-1.5 2.2l-1.4 1.5c-3 1.4-5.2 3-8.2 4.4-3 .7-6.7 1.4-9.6 2.2-5.2 0-10.4.7-16.3 0l-17.8-4.4-11-6.6c-3-3-6-5.2-8.2-8-.8-.8-.8-1.6-1.5-2.3 0-.7-.7-1.5-.7-2.2V254c1.4-6.6 3.7-12.5 5.9-19 3-6 5.9-11.8 9.6-17 1.5-2.1 3.7-3.6 5.2-5 .7-.8 2.2-1.5 3-2.3h1.4c3.7-.7 6-.7 7.4-.7zm-9.6 1.5c-1.5.7-2.2.7-3.7 1.4 1.5-.7 3-1.4 3.7-1.4zm-20 56.4c.8 1.5.8 2.2 1.5 3.7-.7-1.5-.7-3-1.5-3.7zm2.2 1.5c.8 1.4 2.3 2.2 3 3.6-1.5-.7-2.2-2.2-3-3.6z" fill="#fff" />
    <path d="M55.8 227.4c.3 1.1 1.6 2 3 1.5 1-.3 2-1.6 1.5-3-.4-1-1.6-1.9-3-1.5-1.3.7-1.9 1.9-1.5 3zm54.7-28.7c.3 1 1.6 2 3 1.5 1-.3 2-1.6 1.5-3-.4-1-1.6-2-3-1.5-1.1.4-1.7 1.5-1.5 3zm-102 33c0 .3.4.6.6.6.3-.1.7-.5.6-.7 0-.2-.4-.6-.7-.5-.2 0-.6.4-.5.6zm2.5-19.3c0 .2.4.6.6.6.3-.1.7-.5.6-.7 0-.2-.5-.6-.7-.5-.2 0-.6.4-.5.6zM113 266a3.7 3.7 0 004.5 2.3c1.9-.6 3-2.4 2.4-4.5-.6-1.8-2.4-3-4.4-2.3-1.8.8-3 2.6-2.4 4.4zm10.7 73.7l.3-1.5c.1-1.2 0-2.4-.7-3.5l-1.4-2.5-1.3-2.6-3-5.4c-.7-1.6-1.8-3-2.6-4.6l-2-3.2-2-3a53.7 53.7 0 00-3.5-4.9 8.3 8.3 0 00-11.9-1c-.9.5-1.5 1.4-2.3 2.2-.6.7-1 1.4-1.5 2.3l-1.5 3.2-1.4 3.5-.2.5-1 1.8c-.5 1.1-1 2.2-1.3 3.4a20 20 0 01-1 2.7 55 55 0 00-2.2 5.2l-.7 2.5a12 12 0 00-.5 2.8 8.9 8.9 0 004 7.6c1.4 1 3 1.4 4.5 1.6 1.6.2 3.2.1 4.7 0 1.2 0 2.4-.3 3.6-.5l2-.2 1.7-.2h4l2.6.2c1 0 1.8 0 2.7-.2l.5-.1 1.3-.1 1-.2c.7 0 1.4-.1 2-.3l2.7-1 .7-.4c.8-.4 1.4-.8 1.9-1.4l-.3.3 1.5-1.6zm-21.1-17.9c.7 1.1 1.2 2.3 2 3.4l5 8.8h-6.3c-1.4 0-2.9 0-4.3.2-1 0-2 .1-2.9.3h-.6l.2-.5c.6-1.7 1.5-3.4 2.1-5.2l.9-2.4v-.2c.7-1.3 1.5-2.6 2-4l.8-2 1 1.6zm.9-126.2c-2 1-4.9.4-6.1-2-1-2-.4-5 2-6.2 2-1 4.9-.4 6 2 .7 2.3 0 4.8-2 6.2zM89 54.6c-2 1-5 .4-6.2-2-1-2-.4-5 2-6.2 2-1 5-.4 6.1 2 .7 2.3 0 5.2-2 6.2zM198 141c-.5.1-1.5.1-1.7-.3s-.2-1.4.2-1.6 1.4-.2 1.6.2.6 1.2-.2 1.6zm-19.4-45.6c-.4.2-1.4.2-1.6-.2s-.3-1.4.2-1.6c.4-.2 1.4-.2 1.6.2s.2 1.4-.2 1.6zm-11.8-.2c-.4.2-1.4.2-1.6-.2s-.2-1.4.2-1.6 1.4-.2 1.6.2.2 1.4-.2 1.6zm-5.1-43.5c-.4.3-1.4.3-1.6-.2-.2-.4-.2-1.4.2-1.6s1.4-.2 1.6.2.2 1.4-.2 1.6zM46 157c-2.9 1.5-6.3.6-7.8-2.2-1.4-2.9-.6-6.3 2.2-7.8 2.9-1.4 6.3-.6 7.8 2.3 1.4 2.8.6 6.3-2.2 7.7zm205.3-30.1c-1.2.6-2.4.2-3-1-.7-1.3-.3-2.5 1-3.1 1.2-.6 2.4-.2 3 1s-.2 2.7-1 3zm-14.5-16.8c-1.2.6-2.4.2-3-1-.7-1.2-.3-2.4 1-3 1.2-.7 2.4-.3 3 1 .6 1.2-.2 2.6-1 3z" fill="#1b1b20" />
</svg>