<svg xmlns="http://www.w3.org/2000/svg" fill="none" height="576" width="548">
    <path d="M323.8 259.5c-9 1-17.7 5.4-24 12-3.1 3-5.7 6.5-8.2 10a52 52 0 00-7 14.1l-.8 2.7-.7 6.2c0 2.8.1 5.8 1 8.5 1.2 4.2 2.7 8.1 5 11.6a54.3 54.3 0 0041.2 24.4 47.6 47.6 0 0018.5-2.3c4.3-1.7 8.1-4 11.6-7.1 3-3 5.8-7.1 7.8-11 2-3.7 3.3-7.5 4.6-11a32 32 0 001.7-8.8A27 27 0 00373 295a53.8 53.8 0 00-9.6-15c-1-3.5-3.4-5.7-6.4-7.8l-9.3-6.3a44.9 44.9 0 00-11.9-5.4c-4-1-8-1.5-12-1zm5.8 28l6.1 3.6c.6.5.7 1.1 1.2 1.6 2 2.1 4.4 4.4 6.3 6.8 1 1.5 2.1 3.1 2.7 4.6v.3c0 .6-.2 1.5 0 2.2-.6 2-1.2 4.2-2 6.2a32 32 0 01-3.8 6.6c0 .3-.4.6-.8.8l-.8.4-3.8.9-4.1-.2c-2.2-.5-4.4-.8-6.7-1.7l-6.8-3.8-3.8-3.9c-1-1.5-1.9-2.7-2.5-4.1l-.3-1.1c0-.3-.2-.7-.1-1l1-3.9c1.4-2.5 3-4.6 4.5-7 1.9-2.1 3.7-4.2 5.8-5.9.9-.7 2-1 2.7-1.5l1.4-.5.6.1c1.6.1 2.5.4 3.2.5zm-4.1-.4c-.7.1-1 0-1.7.2.7-.2 1.4-.3 1.7-.2zM311 307.8c.2.7 0 1 .2 1.7-.1-.7 0-1.3-.2-1.7zm.8.9c.1.7.6 1.1.8 1.8a3 3 0 01-.8-1.8z" fill="#f6f6f7" />
    <path d="M379.3 292c-32 14.2-75.2 6.2-115.3-30.8-33.6-31-45.8-89-6.4-150.2 21-32.6 77.5-52.5 98.7-10 10.2 20.4-19.5 56.6-3 83.3 16.3 26.7 36.3 23.1 49 47.6s1 49.6-23 60.2z" stroke="#1b1b20" stroke-width="4" />
    <g fill="#1b1b20">
        <path d="M366.4 114.6c-3-.5-6.3.2-9 1.8-1.3.7-2.5 1.6-3.6 2.6a18 18 0 00-3.7 4l-.4.8-.8 2c-.3 1-.6 2-.5 3 0 1.4.1 2.8.5 4.2a18.4 18.4 0 0011.3 11.9 16.2 16.2 0 006.3.9c1.6-.2 3-.6 4.5-1.3a25.1 25.1 0 006.2-6.1c.6-.9 1-1.8 1.3-2.8.7-1.5 1-3.1.8-4.7-.2-2.1-.8-4-1.7-5.9 0-1.2-.6-2.2-1.4-3.1l-2.5-3c-1-1-2-2-3.4-2.9-1.2-.7-2.5-1.2-3.9-1.4zm-.7 9.8l1.7 1.8.3.6 1.4 2.9.5 1.7-.3.8-1.2 2-1.9 1.8-.3.1-.3.1h-1.3l-1.4-.5c-.6-.4-1.3-.6-2-1.2l-2-1.8-.8-1.7c-.2-.6-.4-1-.4-1.6v-.7l.7-1.2 2.2-2c.8-.4 1.6-1 2.4-1.3l1-.3h.8l1 .5zm-1.3-.5h-.5zm-6.6 5.6l-.1.5v-.5zm.1.3l.1.7v-.7zM124 151.5a2 2 0 002.5 2.9 2 2 0 00.1-2.7c-.7-.6-1.8-.7-2.7-.2zm134.8-93.9a2 2 0 002.5 2.9 2 2 0 00-2.5-2.9zm-57.4 129.8a2 2 0 002.5 3 2 2 0 00-2.5-3zm8.7-42.9a2 2 0 002.5 2.9 2 2 0 00.2-2.7c-.6-.7-1.7-.8-2.7-.2zm27.3-35.7a2 2 0 002.5 2.9 2 2 0 00.2-2.7c-.8-.6-2-.8-2.7-.2zm42.6-46a2 2 0 002.5 2.9 2 2 0 00-2.6-2.9zm5 161.6a2 2 0 002.5 2.9 2 2 0 00.1-2.7c-.6-.7-1.8-.7-2.7-.2zM420.8 572a2 2 0 002.5 2.9 2 2 0 00.2-2.7c-.8-.6-2-.8-2.7-.2zm-117.2-56.8a2 2 0 002.5 2.9 2 2 0 00.2-2.8c-.7-.6-2-.8-2.7-.1zm-16.7-373.8a2 2 0 002.5 3 2 2 0 00-2.5-2.9zm186.9 165.9a2 2 0 002.5 2.9 2 2 0 00.2-2.7c-.6-.7-1.7-.8-2.7-.2zm-92-60.2c-1-.4-1.7-.8-2.8-.8-.6-.2-1.5 0-2.3 0-.5 0-1 .3-1.3.8-.1.1-.1.4-.3.5l-.2.3c-.5.4-.6.8-.7 1.3-.4 1.9-.9 3.9-.7 5.8 0 1 .5 1.8 1.3 2.4s1.6.9 2.4 1h1.8l1.2-.4c1.2-.3 2.5-.9 3.4-1.7.2-.2.7-.6.8-1 .3-.5.5-.9.5-1.4a7 7 0 000-2.5 8 8 0 00-1.5-2.8zm-.8 4.6c.1.1.1.4.4.7v.4c.2.2 0 .3 0 .4l-.2.1-.2.2-.4.3-1.1.5c-.4.1-1 0-1.5.3h-.6s-.1-.2-.2 0v-.3c0-1.4.4-2.7.6-4.2h1.1c.3.1.4.3.7.3.4.1.5.3.8.6zM308.4 94.5c-.4.4-.6.8-.5 1.5 0 .6.2 1.1.7 1.7 1.9 2.4 3.5 4.7 5.3 7.2.9 1 2.3 1.4 3.2.6.8-.8.7-2-.3-3.2a139 139 0 01-5.3-7.2l-.2-.2c-.8-1-2.2-1-2.9-.4z" />
        <path d="M315.5 95.1a14012 14012 0 00-5.7 4.8c-.5.4-1 .9-1.6 1.1l-.3.3c-.5.2-.8.5-1 1.1a2 2 0 000 1.5c.3.6.5.9 1.2 1 .4.2 1 .2 1.5 0 .6-.2 1-.6 1.5-.8l1-1 1.9-1.3 3.9-3.4a2 2 0 00.1-2.7c-.4-1-1.6-1.3-2.5-.6zm53-5.7c-.2.1-.3.5-.2.6.1.2.5.3.6.2.2-.1.3-.5.2-.6-.1-.2-.5-.4-.6-.2zm-11.9-5.9c-.2.2-.3.6-.2.7.1.2.5.3.7.2.1-.1.3-.5.2-.7-.2-.1-.6-.3-.7-.2zM250 80.9c-.2.1-.4.5-.3.7.2.1.6.3.7.1.2 0 .3-.5.2-.6-.1-.2-.5-.3-.7-.2zM305.7 279c-.1.1-.3.5-.2.7.2.1.6.3.7.1.2 0 .3-.5.2-.6-.1-.2-.4-.5-.7-.2zm21 16.6c-.2.1-.3.5-.2.7.1.1.5.3.6.2.2-.2.4-.6.2-.7-.1-.2-.5-.3-.6-.2zm15-4.6c-.1.2-.3.6-.2.7.2.2.6.3.7.2s.3-.5.2-.7c-.1-.1-.5-.3-.7-.1zm-7.1-20.8c-.2.2-.3.6-.2.7.1.2.5.3.7.2.1-.1.3-.5.1-.7 0-.1-.3-.4-.6-.2zm-12.5 13.6c-.1.1-.3.5-.2.6.2.2.5.3.7.2.1-.1.3-.5.2-.6-.2-.2-.4-.5-.7-.2zM347.3 88c-.1.2-.3.6-.2.7.2.1.6.3.7.2.2-.1.3-.5.2-.7-.1-.1-.5-.3-.7-.2zm21.3-22.3c-.1.2-.3.6-.2.7.2.2.6.3.7.2s.3-.5.2-.7c-.1-.1-.4-.4-.7-.2zm3.9 5.6c-.2.1-.3.5-.2.7.1.1.5.3.7.1.1 0 .3-.5.1-.6 0-.2-.5-.3-.6-.2zm-12.7-1.7c-.1.2-.3.5-.1.7 0 .1.5.3.6.2.2-.2.3-.5.2-.7-.1-.1-.4-.4-.7-.2zm-10.4-8.1c-.2 0-.3.5-.2.6.1.2.5.3.6.2.2-.1.3-.5.2-.7-.1-.1-.5-.3-.6-.1zm-208 88.2c-1 .9-1.3 2.4-.4 3.4 1 1 2.4 1.2 3.4.4 1-1 1.2-2.4.3-3.4-.8-1-2.3-1.3-3.3-.4zm223.9-70.6c-.5.4-.5 1-.1 1.4s1 .4 1.3 0c.5-.3.5-.9.1-1.3s-1-.3-1.3 0zm-52.8 330.4a1 1 0 000 1.4c.3.4.9.4 1.3 0 .4-.3.4-.9 0-1.3a.8.8 0 00-1.3 0zm-13.2-121.3c-.4.4-.4 1 0 1.3.3.5.9.5 1.3.1.4-.3.5-.9 0-1.3-.3-.4-.8-.5-1.3-.1zm21.7-24.7c-.4.4-.4 1 0 1.3.3.5.9.5 1.3.1.4-.3.5-.9 0-1.3-.3-.5-.8-.5-1.3-.1zm-49.7-97.9c-.4.4-.5 1 0 1.3.3.5.8.5 1.3.1.4-.3.4-.9 0-1.3a.9.9 0 00-1.3-.1zm-147 1.9a5.3 5.3 0 00-.6 7.5c1.9 2.1 5.1 2.6 7.4.6a5.3 5.3 0 00.6-7.4c-2-2-5.3-2.6-7.4-.7zm230.1 277.9a2.8 2.8 0 00-.3 4c1 1.2 2.8 1.5 4 .4 1.2-1 1.4-2.8.3-4.1-1.2-1-2.9-1.3-4-.3zM58.3 246.8a2.8 2.8 0 00-.3 4c1 1.2 2.8 1.4 4 .3 1.2-1 1.5-2.8.3-4a3.3 3.3 0 00-4-.3z" />
    </g>
</svg>