<svg xmlns="http://www.w3.org/2000/svg" width="18" height="18" viewBox="0 0 18 18" fill="none">
    <path d="M8.99984 0.666504C4.39984 0.666504 0.666504 4.39984 0.666504 8.99984C0.666504 13.5998 4.39984 17.3332 8.99984 17.3332C13.5998 17.3332 17.3332 13.5998 17.3332 8.99984C17.3332 4.39984 13.5998 0.666504 8.99984 0.666504ZM8.99984 3.1665C10.3832 3.1665 11.4998 4.28317 11.4998 5.6665C11.4998 7.04984 10.3832 8.16651 8.99984 8.16651C7.61651 8.16651 6.49984 7.04984 6.49984 5.6665C6.49984 4.28317 7.61651 3.1665 8.99984 3.1665ZM8.99984 14.9998C6.9165 14.9998 5.07484 13.9332 3.99984 12.3165C4.02484 10.6582 7.33317 9.74984 8.99984 9.74984C10.6582 9.74984 13.9748 10.6582 13.9998 12.3165C12.9248 13.9332 11.0832 14.9998 8.99984 14.9998Z" fill="#767680" />
</svg>