<svg xmlns="http://www.w3.org/2000/svg" width="96" height="78" viewBox="0 0 96 78" fill="none">
    <path d="M28.975 24.8611C28.572 25.4558 28.2752 25.8511 28.0562 26.2925C27.9664 26.2246 27.8809 26.161 27.7769 26.0833C27.1724 25.6266 26.5788 25.2378 25.8494 24.9849C24.1443 24.3913 22.4436 25.1316 20.8052 25.1437C20.5008 24.1504 20.1481 23.1593 20.0967 22.1901C20.0266 20.9109 19.9204 19.7457 19.6871 18.6966C21.8894 18.2957 24.1005 17.9814 26.3302 17.7712C26.6927 18.092 27.1111 18.3297 27.571 18.4096C28.734 18.425 29.6824 18.9287 30.4118 19.9253C30.5235 20.5463 30.7754 21.0248 31.1094 21.3851C30.5213 22.558 29.7843 23.6696 28.975 24.8611ZM35.5513 14.2229C35.3892 14.0882 35.2315 13.9513 35.0574 13.8298C34.88 12.6777 34.1375 11.5617 32.8189 11.0152C31.4872 10.4633 30.2355 10.5553 29.1721 11.0689C24.0655 11.415 19.0223 12.1761 14.0383 13.418C10.7661 14.2328 11.0661 18.794 14.0383 19.7534C14.5235 19.91 15.1368 23.7627 15.5529 26.3406C15.105 26.7119 14.5958 27.1872 14.4589 27.3986C13.6978 28.5671 13.6868 29.5779 14.0449 30.9107C14.3132 31.9094 15.2529 33.0462 16.3392 33.205C16.5276 33.2335 16.7171 33.2597 16.9054 33.2882C18.5 33.5215 19.7375 32.722 20.4263 31.6192C21.2301 31.6981 22.0077 31.6576 22.9353 31.5623C24.935 31.3586 24.8693 31.4812 26.3598 32.7954C28.3518 34.5509 30.9725 35.2879 33.3424 33.8237C35.9379 32.2183 35.0015 29.5615 36.3946 27.3701C38.4556 24.1317 39.5957 21.0905 40.037 17.2565C40.3141 14.8406 37.5302 13.545 35.5513 14.2229Z" fill="#FFCF00" />
    <path d="M18.751 45.3793C19.8757 45.7155 20.9292 45.4494 21.744 44.8624C22.3135 45.4537 22.9892 45.9947 23.7788 46.4678C25.0152 47.2092 25.6679 48.0733 26.7587 48.8936C26.7565 48.8991 26.7499 48.9045 26.7466 48.9111C25.8125 50.4235 26.2023 51.5734 25.715 53.1493C25.5266 53.7615 25.1663 54.3134 24.7863 54.8577C23.9825 53.7275 22.457 53.0102 21.1767 53.514C20.2853 53.8644 19.4026 54.0802 18.5188 54.2455C17.1247 53.4789 15.8084 51.6084 15.482 50.8287C15.1655 50.0719 14.964 49.2791 14.7997 48.473C16.2245 47.5893 17.1915 46.0867 18.751 45.3793ZM31.5335 43.592C31.1732 43.6468 26.0819 39.9287 26.36 39.3823C28.2765 35.6227 22.6092 32.2934 20.6872 36.0662C20.1692 37.0803 19.8604 38.0834 19.741 39.0548C16.5257 38.596 12.2864 39.7097 13.6761 43.558C12.1791 39.6758 5.88967 41.29 7.34073 45.3059C8.86188 49.2462 9.06558 53.0814 11.0325 56.1029C10.6492 56.4249 10.2779 56.7841 9.94279 57.2254C7.7985 60.0443 11.8133 63.0888 14.4383 61.7199C14.8414 61.5096 15.2531 61.3552 15.6682 61.2238C16.1971 61.6158 17.6745 61.7177 18.5276 62.0123C20.5985 62.7296 22.4635 63.5597 24.334 64.6877C26.4564 65.969 29.3082 64.3252 29.2775 61.8513C29.2436 59.1014 31.5609 56.622 32.2015 53.8962C32.7688 51.4923 34.6514 49.9811 35.5746 47.6342C36.6018 45.0266 33.6997 43.2667 31.5335 43.592Z" fill="#FFCF00" />
    <path d="M55.5147 50.12C53.3945 49.6261 51.2578 49.3666 49.0238 48.8037C48.4915 48.6701 47.9877 48.5792 47.4982 48.5113C47.7337 45.6968 47.9188 42.5778 47.2869 40.0491C47.6713 40.1115 48.0808 40.0962 48.5057 39.9944C49.1749 40.6153 50.1255 41.0895 51.4659 41.325C52.5479 41.5155 53.6387 41.3512 54.7141 41.1541C57.4125 40.6613 56.3502 41.015 55.9023 43.455C55.5103 45.5807 55.6986 47.9144 55.5147 50.12ZM56.6394 57.0983C58.0718 53.7844 59.8974 50.6249 62.0581 47.7239C62.4962 43.8493 64.2375 39.3625 61.4952 36.0573C60.468 34.8209 58.9194 34.1266 57.3359 34.0171C57.1398 34.0039 56.7554 34.0028 56.3251 34.0237C56.7149 32.6766 56.1838 31.1993 54.011 29.6606C52.4669 28.5666 50.4759 29.5018 49.5144 30.839C49.0216 31.5256 48.5671 32.2966 48.1925 33.1015C47.7271 33.2943 47.2606 33.4728 46.8203 33.648C46.8192 33.6491 46.8181 33.6491 46.8181 33.6491C46.5422 33.7597 46.2739 33.8681 46.0329 33.9809C46.0231 33.9853 46.0165 33.9908 46.0066 33.9952C45.5938 33.7455 45.113 33.5692 44.549 33.5111C41.1114 33.1618 37.1623 35.3992 38.08 39.3964C38.4775 41.1322 39.6307 42.1726 40.9975 42.5373C40.9701 43.9347 40.7324 46.0932 40.7281 46.563C40.7029 48.6723 40.658 50.7815 40.6196 52.8907C40.5583 56.4072 44.9443 57.0129 46.7426 54.5488C46.2038 55.2869 50.9939 56.002 51.5393 56.0568C53.1623 56.22 54.9003 57.0797 56.5277 57.3622C56.5649 57.2746 56.6032 57.1837 56.6394 57.0983Z" fill="#FFCF00" />
    <path d="M35.7984 40.5503C35.5564 38.5046 38.2395 35.851 39.5734 34.5489C40.5842 33.5622 39.0346 32.0137 38.0248 32.9993C36.9034 34.0955 35.8948 35.3002 35.0417 36.6176C34.2849 37.7829 33.4373 39.1069 33.6081 40.5503C33.7702 41.9334 35.9627 41.9499 35.7984 40.5503Z" fill="black" />
    <path d="M43.1919 55.6832C41.2205 54.8865 39.1094 53.9863 38.0195 52.05C37.329 50.821 35.4368 51.9243 36.1304 53.1545C37.5185 55.6256 40.0931 56.7778 42.6086 57.7961C43.9139 58.3252 44.4838 56.2074 43.1919 55.6832Z" fill="black" />
    <path d="M43.6939 57.2931C44.0487 56.556 44.328 55.7161 44.8285 55.0656C44.4167 55.2331 44.0049 55.4007 43.592 55.5682C45.1001 55.8902 46.607 56.2122 48.115 56.5341C48.7885 56.6776 49.5584 56.7378 50.2023 56.9799C51.2558 57.3774 51.131 57.8571 51.2438 58.9062C51.3916 60.2927 53.583 60.308 53.4341 58.9062C53.237 57.0708 53.4669 55.5825 51.4803 55.0163C49.105 54.3395 46.5916 53.9726 44.1736 53.4568C43.6424 53.3429 43.2536 53.5499 42.9382 53.9606C42.4454 54.599 42.1508 55.4642 41.8026 56.1881C41.1948 57.4519 43.0828 58.5645 43.6939 57.2931Z" fill="black" />
    <path d="M38.2344 53.1768C38.6385 52.5931 39.1894 52.1945 39.8268 51.8988C40.3623 51.6491 40.4981 50.8759 40.2188 50.3995C39.8979 49.8498 39.2606 49.7567 38.7207 50.0064C37.7394 50.463 36.9564 51.1869 36.3431 52.0707C36.0058 52.558 36.2533 53.2874 36.7363 53.5699C37.2805 53.8875 37.896 53.6641 38.2344 53.1768Z" fill="black" />
    <path d="M40.3188 50.1566C38.9324 47.5841 38.5107 44.7904 39.1021 41.9266C39.2215 41.3484 38.9378 40.7439 38.3366 40.5796C37.3422 40.3069 36.3894 40.0517 35.4761 39.5458C34.243 38.8602 33.1369 40.7515 34.3711 41.4371C35.452 42.0361 36.5723 42.3679 37.7551 42.691C37.4999 42.242 37.2447 41.793 36.9907 41.344C36.2777 44.7937 36.7563 48.1601 38.4275 51.2616C39.0966 52.5035 40.9879 51.3985 40.3188 50.1566Z" fill="black" />
    <path d="M38.343 34.5592C40.1621 36.503 41.1028 36.5041 43.5844 35.2765C47.4765 33.3501 49.7226 28.2019 54.504 30.8401C54.3737 30.3396 54.2434 29.8402 54.1109 29.3408C54.3299 29.8774 54.5478 30.413 54.7658 30.9496C54.5478 30.413 54.3299 29.8774 54.1109 29.3408C52.0345 33.3687 55.8532 34.4157 59.1463 36.1635C60.3904 36.825 61.4987 34.9348 60.2524 34.2733C59.2307 33.7312 55.0516 32.29 56.0033 30.4469C56.2891 29.8928 56.092 28.9433 55.3484 28.8371C53.7977 28.618 52.65 29.6518 53.3311 31.2365C53.5075 31.6461 54.1569 31.8892 54.5675 31.7392C55.344 31.4555 55.5039 31.1467 56.0033 30.4469C56.3406 29.9727 56.0931 29.2149 55.6101 28.9477C53.5118 27.7901 51.2186 26.3511 48.9517 27.7923C47.0943 28.9707 42.7597 36.0759 39.8916 33.0106C38.9267 31.979 37.3804 33.5308 38.343 34.5592Z" fill="black" />
    <path d="M43.8725 43.0003C43.6863 45.8816 44.718 49.1539 47.9212 49.7431C50.7785 50.2698 55.1656 48.154 56.0329 45.2431C56.9342 42.2129 54.0004 39.4586 51.3304 38.7052C48.2553 37.8389 45.1002 39.325 44.1244 42.4034C43.6984 43.7505 45.812 44.3265 46.2369 42.9861C47.8632 37.8564 56.4776 42.3575 53.0443 45.7524C51.8123 46.9702 49.5388 48.154 47.8303 47.4291C46.0891 46.6909 45.9566 44.643 46.0628 43.0003C46.1537 41.593 43.9634 41.5985 43.8725 43.0003Z" fill="black" />
    <path d="M4.3919 47.124C4.14988 45.0783 6.83407 42.4247 8.16795 41.1226C9.17767 40.1359 7.62805 38.5874 6.61833 39.5741C5.4969 40.6703 4.48937 41.8739 3.63516 43.1913C2.87951 44.3566 2.03187 45.6806 2.20162 47.124C2.3648 48.5072 4.55727 48.5236 4.3919 47.124Z" fill="black" />
    <path d="M11.7846 62.2583C9.81294 61.4592 7.70247 60.5604 6.61501 58.6238C5.92203 57.3951 4.03124 58.4977 4.72312 59.7296C6.11157 62.1997 8.68615 63.3519 11.2017 64.3702C12.5084 64.8986 13.0769 62.7816 11.7846 62.2583Z" fill="black" />
    <path d="M31.1416 51.6108C32.2871 51.1432 33.4589 50.7435 34.6044 50.2747C35.1509 50.0513 35.5397 49.5465 35.3688 48.9277C35.2265 48.4097 34.5727 47.9377 34.0218 48.1633C32.8763 48.6309 31.7045 49.0307 30.5601 49.4994C30.0125 49.7228 29.6237 50.2266 29.7946 50.8464C29.9359 51.3644 30.5907 51.8364 31.1416 51.6108Z" fill="black" />
    <path d="M12.2808 63.866C12.5393 63.3403 12.7824 62.5474 13.3398 62.3722C13.8885 62.2002 14.9979 62.7577 15.5717 62.8595C16.2639 62.9822 19.6489 63.0764 19.6763 64.0499C19.7179 65.4561 21.9082 65.4627 21.8666 64.0499C21.7823 61.1555 18.2745 61.1259 16.1533 60.747C15.0537 60.551 13.7242 59.941 12.5908 60.2498C11.4222 60.5685 10.8769 61.7677 10.3884 62.761C9.76968 64.0215 11.6588 65.133 12.2808 63.866Z" fill="black" />
    <path d="M6.82768 59.7507C7.23288 59.1669 7.78265 58.7683 8.42002 58.4726C8.95664 58.2229 9.09134 57.4498 8.81317 56.9745C8.4923 56.4236 7.85383 56.3305 7.31502 56.5813C6.33268 57.0369 5.54965 57.7608 4.93637 58.6457C4.60016 59.1319 4.84657 59.8613 5.32953 60.1438C5.87381 60.4625 6.48928 60.238 6.82768 59.7507Z" fill="black" />
    <path d="M8.9019 56.7187C7.51435 54.1463 7.09272 51.3536 7.68519 48.4888C7.80456 47.9105 7.52092 47.306 6.91969 47.1417C5.92421 46.869 4.97143 46.6139 4.05918 46.1079C2.82496 45.4235 1.71886 47.3137 2.95309 47.9992C4.03399 48.5983 5.15542 48.9301 6.33707 49.2543C6.083 48.8042 5.82674 48.3551 5.57267 47.9072C4.86082 51.3558 5.33831 54.7223 7.00949 57.8248C7.67972 59.0656 9.57103 57.9606 8.9019 56.7187Z" fill="black" />
    <path d="M25.4486 65.1087C27.1307 64.6345 28.8588 63.7168 29.5608 62.016C30.564 59.587 29.0308 58.8401 27.3815 57.4592V59.0077C29.9595 56.5086 31.8957 54.6687 31.6526 50.8346C31.5649 49.4351 29.3736 49.4252 29.4623 50.8346C29.6671 54.0533 27.94 55.4156 25.833 57.4592C25.4343 57.8446 25.3818 58.6299 25.833 59.0077C26.7792 59.8006 27.2698 59.7436 27.1406 61.0293C27.0059 62.3709 26.0509 62.6622 24.866 62.9962C23.5113 63.3784 24.0873 65.492 25.4486 65.1087Z" fill="black" />
    <path d="M6.92333 41.1347C9.9722 44.9907 10.776 42.7533 14.4645 40.5959C15.7786 39.8282 16.9263 39.6365 17.6196 38.3684C17.9744 37.7189 17.6119 36.4387 18.1463 35.9492C18.5603 35.5692 22.2016 36.9929 23.0854 37.4156C22.954 36.9151 22.8237 36.4157 22.6923 35.9163C22.1403 37.1582 22.0834 37.2601 21.7581 38.5797C21.642 39.0462 21.8326 39.573 22.2608 39.8161C24.0897 40.8521 27.0181 41.5541 28.2205 43.4345C28.5436 43.9382 29.1864 44.1277 29.7187 43.8265C30.1228 43.5966 30.5269 43.371 30.9354 43.1508C31.5629 42.6055 31.7239 42.7226 31.4173 43.5024C32.5858 44.3511 33.0293 48.1951 33.256 49.5125C33.4947 50.899 35.6051 50.3109 35.3685 48.931C34.8801 46.1022 33.97 43.5801 32.5704 41.0777C32.3503 40.6835 31.7765 40.413 31.3329 40.574C30.355 40.9299 29.5248 41.4216 28.6148 41.9352L30.1129 42.3284C29.435 41.2694 29.0287 41.1018 27.9621 40.3484C27.2371 39.8347 26.407 39.3934 25.6196 38.9838C23.7644 38.0201 23.7775 38.8316 24.5836 37.0224C24.8081 36.5176 24.7697 35.8002 24.1915 35.5232C22.0144 34.4828 19.6894 34.0973 17.3118 33.7907C16.8409 33.7304 16.3766 34.1751 16.255 34.5945C16.0174 35.429 15.9878 36.8844 15.53 37.5547C15.0307 38.2884 14.9759 37.7135 14.0297 38.3497C13.2708 38.8601 11.4912 40.3363 10.684 40.4809C9.12675 40.758 9.89335 41.3833 8.47185 39.5862C7.59793 38.4812 6.05816 40.0406 6.92333 41.1347Z" fill="black" />
    <path d="M12.4545 49.5739C12.2684 52.4564 13.2989 55.7275 16.5033 56.3178C19.3594 56.8435 23.7476 54.7288 24.6139 51.8179C25.5152 48.7876 22.5824 46.0323 19.9114 45.2799C16.8362 44.4125 13.6822 45.8986 12.7053 48.9771C12.2793 50.3241 14.394 50.9002 14.8179 49.5597C16.4441 44.4301 25.0585 48.9311 21.6253 52.326C20.3932 53.5438 18.1208 54.7288 16.4124 54.0027C14.6711 53.2646 14.5386 51.2167 14.6448 49.5739C14.7357 48.1667 12.5444 48.1722 12.4545 49.5739Z" fill="black" />
    <path d="M9.57185 17.7808C9.32983 15.735 12.0129 13.0815 13.3468 11.7794C14.3565 10.7927 12.808 9.24413 11.7983 10.2298C10.6769 11.3271 9.66823 12.5306 8.81511 13.8481C8.05837 15.0133 7.21073 16.3374 7.38157 17.7808C7.54365 19.1639 9.73613 19.1803 9.57185 17.7808Z" fill="black" />
    <path d="M16.964 32.9145C14.992 32.1163 12.8816 31.2174 11.7939 29.2818C11.1023 28.0524 9.21009 29.1556 9.90368 30.3858C11.2916 32.857 13.8665 34.0083 16.382 35.0267C17.6877 35.5548 18.2563 33.4378 16.964 32.9145Z" fill="black" />
    <path d="M36.3202 22.2671C37.4657 21.7983 38.6375 21.3997 39.783 20.931C40.3306 20.7076 40.7183 20.2027 40.5474 19.584C40.4051 19.066 39.7524 18.594 39.2015 18.8196C38.056 19.2872 36.8842 19.6869 35.7387 20.1556C35.1922 20.379 34.8034 20.8828 34.9743 21.5027C35.1155 22.0207 35.7693 22.4927 36.3202 22.2671Z" fill="black" />
    <path d="M17.4556 34.5117C17.8104 33.7747 18.0897 32.9347 18.5902 32.2842C18.1784 32.4518 17.7655 32.6193 17.3538 32.7869C18.8618 33.1099 20.3687 33.4319 21.8767 33.7539C22.5502 33.8974 23.3201 33.9565 23.964 34.1985C25.0165 34.5961 24.8927 35.0757 25.0055 36.1249C25.1523 37.5113 27.3447 37.5267 27.1958 36.1249C26.9987 34.2894 27.2286 32.8011 25.2421 32.2349C22.8667 31.5581 20.3534 31.1913 17.9353 30.6755C17.4041 30.5616 17.0154 30.7696 16.7 31.1792C16.2071 31.8177 15.9126 32.6828 15.5643 33.4067C14.9565 34.6716 16.8445 35.7832 17.4556 34.5117Z" fill="black" />
    <path d="M11.9965 30.4069C12.4006 29.8232 12.9514 29.4246 13.5888 29.1289C14.1243 28.8792 14.2601 28.106 13.9809 27.6307C13.66 27.0799 13.0226 26.9868 12.4827 27.2376C11.5015 27.6931 10.7185 28.417 10.1041 29.3019C9.76787 29.7882 10.0154 30.5175 10.4983 30.8001C11.0426 31.1177 11.6581 30.8942 11.9965 30.4069Z" fill="black" />
    <path d="M14.0805 27.375C12.6941 24.8025 12.2724 22.0099 12.8638 19.145C12.9832 18.5668 12.6995 17.9622 12.0983 17.798C11.1039 17.5253 10.1512 17.2701 9.23781 16.7642C8.00468 16.0797 6.89858 17.9699 8.13281 18.6555C9.21262 19.2545 10.334 19.5863 11.5168 19.9105C11.2616 19.4604 11.0065 19.0114 10.7524 18.5624C10.0394 22.0121 10.518 25.3785 12.1892 28.48C12.8583 29.7219 14.7497 28.6169 14.0805 27.375Z" fill="black" />
    <path d="M25.967 37.3205C29.6642 37.568 33.4107 34.1457 35.3239 31.3016C35.6711 30.7858 35.3929 30.1211 34.9319 29.8035C34.2113 29.3107 33.4885 28.8102 32.8412 28.2232C32.8982 28.6656 32.9562 29.1081 33.0132 29.5505C33.8017 28.2725 35.1618 27.4106 35.8989 26.0296C36.6633 24.5983 36.8527 23.0826 36.8287 21.4837C36.8068 20.0753 34.6165 20.071 34.6384 21.4837C34.6679 23.4396 34.2233 24.9564 32.931 26.4644C32.344 27.1489 31.5983 27.6734 31.1219 28.4455C30.8777 28.8408 30.9412 29.4541 31.2927 29.7728C32.0779 30.4836 32.9529 31.0957 33.8258 31.6948C33.6955 31.1954 33.564 30.696 33.4326 30.1966C31.9399 32.4143 28.8681 35.3241 25.967 35.1302C24.5598 35.0361 24.5664 37.2263 25.967 37.3205Z" fill="black" />
    <path d="M31.0507 12.2967C31.9246 12.7917 32.8566 13.1958 33.3932 14.0916C33.6889 14.5877 34.3854 14.8024 34.8914 14.4848C35.1761 14.3052 36.2033 13.6229 36.2033 13.6229C36.4147 13.6667 37.1397 14.9557 37.3116 15.3543C37.9238 16.7681 38.1921 18.3594 38.3881 19.8794C38.5656 21.2582 40.758 21.2757 40.5784 19.8794C40.2795 17.5555 39.9279 14.9184 38.4736 12.9954C36.9568 10.9869 35.7061 11.3877 33.7853 12.5935L35.2834 12.9866C34.5376 11.736 33.3921 11.1063 32.1557 10.4054C30.928 9.70886 29.823 11.6013 31.0507 12.2967Z" fill="black" />
    <path d="M11.9228 11.5673C12.6083 12.5179 13.4483 13.7838 14.7504 13.8496C15.885 13.9076 16.8432 13.072 17.7172 12.462C18.8649 11.6604 17.7708 9.7614 16.6111 10.5707C16.1851 10.8686 15.3812 11.6231 14.9092 11.6669C14.8205 11.6746 14.8851 11.6834 14.7252 11.553C14.3638 11.2585 14.0835 10.8346 13.8141 10.4623C12.996 9.32881 11.0959 10.4207 11.9228 11.5673Z" fill="black" />
    <path d="M17.6225 20.2191C17.4363 23.1004 18.468 26.3726 21.6712 26.9629C24.5285 27.4886 28.9156 25.3739 29.7819 22.463C30.6843 19.4327 27.7504 16.6774 25.0804 15.9239C22.0053 15.0576 18.8502 16.5438 17.8744 19.6222C17.4484 20.9692 19.562 21.5453 19.9869 20.2048C21.6132 15.0752 30.2276 19.5762 26.7943 22.9711C25.5612 24.1889 23.2888 25.3728 21.5803 24.6478C19.8391 23.9097 19.7066 21.8618 19.8128 20.2191C19.9037 18.8118 17.7134 18.8173 17.6225 20.2191Z" fill="black" />
    <path d="M61.4754 45.7255C62.3691 36.9392 61.2444 28.2536 60.7592 19.4804C60.5544 15.7854 61.6025 10.4663 57.2799 8.94296C53.7426 7.69669 48.2461 8.5498 44.538 8.50819C39.6558 8.45343 34.7737 8.52352 29.8938 8.67137C20.7417 8.94734 11.6005 9.50805 2.46046 10.0501C1.05978 10.1334 1.04992 12.3237 2.46046 12.2404C16.8221 11.3884 31.1981 10.5024 45.5915 10.7138C47.3525 10.7401 49.1146 10.7795 50.8756 10.8387C53.8686 10.9383 54.7743 10.532 56.7674 13.1965C59.2063 16.4545 58.6204 20.581 58.9227 24.598C59.4538 31.6595 60.0036 38.6574 59.2852 45.7255C59.1417 47.1262 61.3331 47.1174 61.4754 45.7255Z" fill="black" />
    <path d="M0.11043 11.1278C0.985448 21.0936 1.2888 31.0868 1.38079 41.0865C1.43117 46.4461 1.15958 51.6251 0.817891 56.9343C0.695235 58.8355 0.627336 60.8965 1.86047 62.5031C3.28634 64.3605 6.76122 65.2234 8.88799 65.8871C13.2675 67.2549 17.8857 67.7598 22.4557 67.877C32.1948 68.1288 41.8682 66.6427 51.6116 67.371C53.0189 67.4761 53.0112 65.2847 51.6116 65.1807C43.7945 64.597 36.0508 65.3756 28.2402 65.6341C23.8684 65.7787 19.4451 65.7754 15.115 65.0756C10.3905 64.3112 2.26676 62.2589 3.17573 56.2871C4.21721 49.4479 3.62036 42.0327 3.49113 35.0512C3.34219 27.0643 3.00051 19.0873 2.30071 11.1278C2.17915 9.7348 -0.0122262 9.72166 0.11043 11.1278Z" fill="black" />
    <path d="M91.2748 58.9423C88.8535 57.0926 86.2536 55.1674 83.4906 53.6846C79.133 50.4594 72.5885 49.9655 67.1171 51.7626C65.6748 51.5468 64.1263 51.871 62.7245 53.0012C58.3177 56.5505 52.935 63.9329 54.5515 70.1894C56.3749 77.2509 65.1459 76.9738 70.8023 77.033C74.7733 77.0735 78.7355 76.7701 82.6868 76.3989C85.8167 76.1043 89.4175 76.1295 92.209 74.3904C98.5619 70.4325 96.2599 62.7512 91.2748 58.9423Z" fill="#FFD000" />
    <path d="M68.1752 8.75016C67.3461 8.05475 66.723 7.12278 66.5795 6.02874C66.5029 5.44174 66.1305 4.93359 65.4844 4.93359C64.9522 4.93359 64.3115 5.43845 64.3893 6.02874C64.6072 7.69773 65.3212 9.20245 66.6266 10.2987C67.6988 11.1989 69.2561 9.65803 68.1752 8.75016Z" fill="black" />
    <path d="M62.594 20.3905C63.7165 24.6309 64.8992 28.9994 64.805 33.4238C64.6933 38.5216 62.3388 42.4631 59.7006 46.6301C56.3889 51.8638 53.1845 57.4577 51.383 63.4328C47.3868 76.6862 64.9846 73.6056 73.0011 73.7173C80.3615 73.8202 96.1305 75.544 90.6865 63.2226C87.6311 56.3056 82.1729 50.8267 79.7548 43.5516C77.2601 36.0488 77.4079 27.9393 77.5021 20.1287C77.5196 18.7193 75.3293 18.7182 75.3118 20.1287C75.1925 30.0989 75.2264 40.3724 79.8731 49.4654C82.3886 54.3891 86.1406 58.6295 88.4831 63.6409C89.8925 66.6569 88.3867 70.4757 85.2546 71.4788C83.8988 71.9136 81.7337 71.6442 80.3966 71.63C77.2272 71.596 74.0579 71.5423 70.8875 71.4974C67.7181 71.4536 64.5477 71.4186 61.3783 71.3649C57.1708 71.2948 52.2273 71.6245 53.259 64.7919C54.0968 59.2428 58.1017 53.2075 61.0881 48.517C63.7274 44.3697 66.3131 40.4688 66.8606 35.4618C67.44 30.1679 66.0491 24.8784 64.7065 19.8079C64.3462 18.4466 62.2326 19.0237 62.594 20.3905Z" fill="black" />
    <path d="M64.0276 20.7652C67.1553 22.2677 70.3805 22.2064 73.7448 21.6446C75.4718 21.3554 78.9675 20.8539 77.2919 18.2704C75.9876 16.2587 72.7175 15.4483 70.49 15.3902C67.6711 15.3179 65.0494 16.3704 62.9916 18.2682C61.9534 19.2265 63.5052 20.7717 64.5412 19.8168C67.1049 17.4513 71.0047 16.8522 74.1204 18.5267C74.5366 18.7381 74.9253 18.9943 75.2867 19.2944C74.9922 19.1914 74.6987 19.1925 74.4084 19.2999C73.4622 19.6142 72.3419 19.6821 71.3618 19.773C69.1945 19.9767 67.1268 19.831 65.1326 18.8739C63.8677 18.2661 62.7561 20.1541 64.0276 20.7652Z" fill="black" />
    <path d="M59.0133 53.0078C60.9692 50.8044 67.9595 52.2598 70.6459 52.3562C74.3464 52.4876 78.048 52.607 81.7484 52.7329C83.159 52.78 83.1568 50.5897 81.7484 50.5426C75.9551 50.3455 70.1082 50.3652 64.3499 49.6906C61.6186 49.3708 59.436 49.2383 57.4648 51.4593C56.5317 52.5095 58.0759 54.0646 59.0133 53.0078Z" fill="black" />
    <path d="M57.847 53.3778C59.2564 53.3778 59.2586 51.1875 57.847 51.1875C56.4375 51.1875 56.4353 53.3778 57.847 53.3778Z" fill="black" />
    <path d="M63.4717 65.324C64.1846 66.0314 65.2776 66.003 66.0387 65.382C66.8874 64.6888 66.9772 63.4841 66.2753 62.6486C65.6718 61.9301 64.6314 61.6345 63.7444 61.9597C62.635 62.366 62.0995 63.4064 61.9626 64.5169C61.8914 65.105 62.5178 65.612 63.0577 65.612C63.7104 65.612 64.0817 65.1061 64.1529 64.5169C64.1726 64.3646 64.2876 64.1226 64.4256 64.0405C64.4639 64.0175 64.6336 64.0076 64.5504 64.0208C64.5646 64.0186 64.6205 64.0963 64.6227 64.0876C64.684 63.851 64.4847 63.9583 64.684 63.6648C64.7421 63.5805 64.603 63.7032 64.649 63.6977C64.7716 63.6813 64.9184 63.6736 65.0202 63.7744C64.0193 62.7811 62.4696 64.3296 63.4717 65.324Z" fill="black" />
    <path d="M76.1043 59.6815L76.8789 59.2937C78.1397 58.6636 77.0318 56.7737 75.7739 57.4023C75.5154 57.5318 75.2579 57.6607 74.9979 57.7897C73.7376 58.4207 74.8455 60.3106 76.1043 59.6815Z" fill="black" />
    <path d="M78.9238 65.8446C80.1712 67.4796 82.3505 65.2937 80.7154 64.0518C80.2434 63.6948 79.4911 63.9774 79.2173 64.445C78.8887 65.0068 79.1373 65.585 79.6104 65.9431C79.6313 65.9596 79.6532 65.976 79.6751 65.9924L79.1713 65.3375C79.1779 65.3594 79.1844 65.3813 79.191 65.4032V64.8206C79.3575 64.6542 79.525 64.4866 79.6915 64.3201H80.2741C80.2533 64.3136 80.2303 64.307 80.2095 64.3004C80.4274 64.468 80.6454 64.6355 80.8633 64.8031C80.848 64.7823 80.8304 64.7604 80.8151 64.7396C80.4559 64.2698 79.8711 64.0212 79.3159 64.3464C78.8548 64.6169 78.5624 65.3715 78.9238 65.8446Z" fill="black" />
    <path d="M73.1581 8.28906C73.1932 7.27496 72.892 6.36599 72.7212 5.37927C72.6095 4.73314 72.5591 3.7497 73.3794 3.61719C74.768 3.39268 74.1788 1.28235 72.7967 1.50466C71.6206 1.69522 70.8594 2.68303 70.5802 3.79241C70.1925 5.33218 71.0215 6.76024 70.9679 8.28906C70.9197 9.69851 73.11 9.69741 73.1581 8.28906Z" fill="black" />
    <path d="M74.1699 43.3692C73.4844 42.3923 71.8241 40.7397 71.926 39.4551C72.0278 38.1716 72.8514 36.6581 73.2522 35.4414C73.6957 34.101 71.5821 33.5249 71.1408 34.8588C70.637 36.3833 69.4959 38.429 69.6185 40.0564C69.7357 41.6246 71.4157 43.2476 72.2786 44.4742C73.0836 45.6186 74.9836 44.5256 74.1699 43.3692Z" fill="black" />
    <path d="M76.0726 11.7098C79.3471 9.39143 77.7503 5.31969 79.9056 2.46137C80.7543 1.33557 78.8531 0.242618 78.0143 1.35528C77.1305 2.52818 76.8271 3.84563 76.6289 5.27808C76.4132 6.83208 76.3825 8.81648 74.9676 9.81853C73.8254 10.6267 74.9183 12.5268 76.0726 11.7098Z" fill="black" />
</svg>