<svg xmlns="http://www.w3.org/2000/svg" width="345" height="366" fill="none">
    <path d="M130.6 232a63 63 0 0037.6-19c4.9-4.6 8.9-10 12.9-15.5a81.1 81.1 0 0011-22l1-4.2c.5-3.4.9-6.8 1.1-9.7.2-4.4 0-9-1.5-13.4a63.5 63.5 0 00-7.8-18 86.6 86.6 0 00-26.6-26.2c-11.4-7-24.6-11-38-12.2a74.8 74.8 0 00-29 3.8c-6.8 2.6-12.8 6-18.3 11a71 71 0 00-12.2 17.3c-3 5.6-5.2 11.6-7.1 17a44.8 44.8 0 00-2.7 13.8 43 43 0 002.4 21.6c3.7 9 8.8 16.4 15 23.5 1.6 5.5 5.3 9 10 12.2l14.7 10c5.6 3.4 12 6.6 18.6 8.4a49.3 49.3 0 0018.9 1.6zm-9.1-44l-9.7-5.5c-.8-.7-1-1.8-1.9-2.5-3.2-3.4-6.8-6.8-9.9-10.7-1.4-2.3-3.2-4.8-4.2-7l.2-.5c-.3-1.1.1-2.5-.1-3.6a50.2 50.2 0 019-20c0-.5.6-.9 1.2-1.2l1.2-.7c2.2-.4 3.9-1 6-1.4l6.6.3c3.3.9 6.7 1.3 10.4 2.8l10.7 5.8 6 6.1c1.4 2.4 2.9 4.3 3.8 6.6.4.6.2 1 .6 1.6-.1.5.2 1 .1 1.6l-1.6 6c-2.1 4-4.5 7.3-7 11.1a82 82 0 01-9.1 9c-1.3 1.2-3 1.8-4.2 2.4-.6.4-1.7.6-2.3 1l-1-.3a23 23 0 01-4.8-.8zm6.4.8c1-.2 1.6 0 2.6-.3-1 .2-2.1.4-2.6.3zm22.4-32.5c-.2-1 0-1.5-.3-2.5.2 1 0 2 .3 2.5zm-1.1-1.3c-.3-1-1-1.7-1.3-2.8.8.7 1 1.8 1.3 2.8z" fill="#F5F5F6" />
    <path d="M105.8 70.8a2 2 0 002.5 2.9 2 2 0 00.2-2.7c-.8-.6-1.8-.7-2.7-.2zm77.5 15.9a2 2 0 002.5 2.9 2 2 0 00-2.5-3zm8.7-43a2 2 0 002.5 3 2 2 0 00.2-2.8c-.6-.7-1.7-.8-2.7-.2zm-65.2-30a2 2 0 002.5 2.9 2 2 0 00.2-2.7c-.6-.8-1.9-.7-2.7-.2zm135.9 347.6a2 2 0 002.5 2.9 2 2 0 00.2-2.8c-.8-.5-2-.8-2.7-.1zm-117.2-56.9a2 2 0 002.5 2.9 2 2 0 00.2-2.7c-.8-.6-2-.8-2.7-.2zM315.7 96.6a2 2 0 002.5 2.9 2 2 0 00.2-2.7c-.6-.7-1.7-.8-2.7-.2zm-188.1 21.6c-.1.2-.3.6-.2.7.1.2.5.3.7.2.1-.1.3-.5.2-.7-.2-.1-.4-.4-.7-.2zM164 73c-.2.1-.3.5-.2.7.1.1.5.3.7.2.1-.2.3-.6.1-.7 0-.1-.3-.4-.6-.2zm-40.7-4c-1 .9-1.3 2.3-.4 3.3s2.4 1.3 3.4.4 1.2-2.4.3-3.4c-.9-1-2.3-1.2-3.3-.3zm31.1 129.8c-.4.3-.5.9 0 1.3.3.4.8.5 1.3.1.4-.4.4-1 0-1.3-.3-.5-.9-.5-1.3-.1zm-33.2-71.4c-.4.4-.5 1 0 1.4.3.4.8.5 1.3 0 .4-.3.4-.8 0-1.3-.3-.4-.9-.4-1.3 0zM163 52.7c-.5.4-.6 1-.2 1.4.4.4 1 .5 1.4 0 .4-.3.4-.8 0-1.3-.3-.4-.9-.4-1.3 0zm90.2 12.1c-.4.4-.5 1 0 1.4.3.4.8.5 1.3 0 .4-.3.4-.8 0-1.3-.3-.4-.9-.4-1.3 0zm-147.1 22a5.3 5.3 0 00-.5 7.4c1.9 2.2 5 2.7 7.4.6a5.3 5.3 0 00.6-7.4c-2-2-5.3-2.5-7.5-.6zm90.1 147.9a2.8 2.8 0 00-.2 4c1 1.2 2.7 1.4 4 .3 1.2-1 1.4-2.8.3-4-1.2-1-3-1.3-4-.3zM40.2 146a2.8 2.8 0 00-.3 4c1 1.2 2.8 1.5 4 .3 1.2-1 1.4-2.7.3-4a3.3 3.3 0 00-4-.3zm94.5 72.7c0 .5-.2 1-.1 1.5a6 6 0 00.8 3.4l1.5 2.4 1.5 2.4c1 1.7 2.1 3.3 3 5l3 4.3c.6 1 1.2 2 2 3 .6 1 1.4 1.8 2.1 2.7a49.5 49.5 0 003.7 4.5 7.5 7.5 0 008 2.1 9 9 0 003.5-2.2c1-.7 1.5-1.6 2.2-2.5.5-.8 1-1.6 1.3-2.5.5-1 .9-2.2 1.2-3.3.5-1.2.8-2.5 1.2-3.7l.2-.5.8-1.9c.5-1.1.9-2.3 1.2-3.5l.8-2.8 1.8-5.4.5-2.5.3-3a9 9 0 00-1.1-4 8.1 8.1 0 00-3.2-3 7.6 7.6 0 00-4.4-1.1c-1.5 0-3 .2-4.6.5l-3.4.8-1.9.4-1.7.4c-1.2.2-2.5.4-3.7.4l-2.7.1-2.6.5-.5.2-1.2.3-1 .3c-.6 0-1.3.2-1.8.5-1 .4-1.8.7-2.6 1.3l-.7.4c-.7.5-1.3 1-1.7 1.5l.2-.3-1.4 1.8c0 .5-.3 1-.5 1.5zm21.5 15.5l-2-3.2c-2-2.6-3.7-5.4-5.4-8.2h.4l.3-.1 2.4-.1c1 0 1.9-.2 2.9-.3l4.2-.8c1-.2 1.9-.3 2.8-.6l.6-.1-.2.5c-.5 1.8-1.3 3.6-1.8 5.5l-.7 2.4v.2l-1.7 4.2-.6 2.1-1.2-1.5z" fill="#1B1B20" />
</svg>