<svg xmlns="http://www.w3.org/2000/svg" width="345" height="366" fill="none">
    <path d="M169 46.4a69.7 69.7 0 00-45.7 9.4c-6.5 3.7-12.3 8.3-18.1 13a90.1 90.1 0 00-18 20.4l-2.5 4.2-4 10a43.7 43.7 0 00-2.2 14.8c.1 7.5 1 14.8 3.2 21.6a95.6 95.6 0 0021 35.6 94 94 0 0037 23.8 82.4 82.4 0 0032 4.3c8-.9 15.4-2.8 22.7-6.7a76.1 76.1 0 0018-14.9c4.9-5.2 8.8-11 12.5-16.2 3.1-4.4 5-8.8 6.8-14 3-7.5 4.7-15.8 3.7-23.8a93.2 93.2 0 00-9.3-29.4c-.2-6.3-3-11-7.2-15.9-4-4.8-8.7-10-12.8-14.8a77.7 77.7 0 00-17.4-14.4 54.3 54.3 0 00-19.7-7zm-3 49.5l8.8 8.8c.7 1 .6 2.2 1.3 3.2 2.4 4.5 5.3 9.2 7.5 14.2.8 3 2 6.1 2.4 8.8l-.3.5c0 1.2-.8 2.6-.9 3.7-1.9 3.3-3.7 6.5-6 9.5a55.8 55.8 0 01-9.3 9.5c-.3.4-1 .6-1.7.8l-1.5.4c-2.4-.1-4.4 0-6.8-.2l-7-2.1c-3.2-2-6.8-3.4-10.3-6l-9.7-9.3-4.6-8.3c-.8-2.9-1.9-5.4-2.2-8-.2-.8 0-1.2-.2-2 .3-.4 0-1.2.3-1.6l3.5-6c3.4-3.7 7-6.6 10.7-10 4-2.5 8-5.1 12.3-7 1.7-.9 3.7-1 5.2-1.4.7-.2 2 0 2.7-.3l.9.6c2.6.9 4 1.7 5 2.2zm-6.6-2.6c-1.2 0-1.7-.3-2.9-.4a8 8 0 013 .4zm-33.3 28.3c0 1.2-.3 1.7-.4 2.9 0-1.2.6-2.1.4-2.9zm.9 1.8c0 1.2.6 2.2.5 3.4-.6-1-.6-2.2-.5-3.4z" fill="#fff" />
    <path d="M228 197c0 16.9-12.1 34.4-36.4 45-20.3 8.7-48.4 2.7-67.7-26.7-10.3-15.7-8-44.6 15-45.7 11-.5 21.1 19.8 36.2 17.7 15-2 17.3-11.5 30.7-12.3 13.3-.9 22.1 9.2 22.1 22z" stroke="#1B1B20" stroke-width="3" />
    <path d="M240.3 136.8c-4.5-.7-9.3.3-13.2 2.7a40 40 0 00-5.3 3.7 23 23 0 00-5.3 5.9l-.8 1.2-1.1 2.9a10 10 0 00-.7 4.2c0 2.2.2 4.3.8 6.3a27 27 0 0016.5 17.3 23.7 23.7 0 009.2 1.4c2.3-.3 4.5-.8 6.6-1.9 1.9-1 3.7-2.6 5.2-4.3 1.5-1.5 2.6-3.1 3.7-4.7 1-1.2 1.5-2.5 2-4 1-2.1 1.5-4.6 1.2-6.9a27 27 0 00-2.5-8.5c0-1.9-.9-3.2-2-4.7l-3.7-4.3c-1.4-1.5-3-3-5-4.2a14 14 0 00-5.6-2zm-1 14.4l2.4 2.5.4 1c.7 1.3 1.5 2.7 2 4.1.3.9.7 1.8.7 2.6v.1c0 .4-.3.8-.3 1.1-.6 1-1.1 1.9-1.8 2.7-.8 1-1.7 2-2.7 2.8l-.5.2-.5.1h-2c-.5-.3-1.3-.5-1.9-.7-1-.6-2-1-3-1.8l-2.7-2.7-1.3-2.4c-.3-.8-.6-1.6-.6-2.3v-1.1l1-1.7a18.2 18.2 0 018.3-5.3h.7l.3.1 1.4.7zm-2-.8l-.8-.1.8.1zm-9.7 8.1l-.1.9v-.9zm.2.6l.2 1c-.2-.4-.2-.7-.2-1zm-122-88.3a2 2 0 002.5 2.9 2 2 0 00.2-2.7c-.8-.6-1.8-.7-2.7-.2zm77.5 15.9a2 2 0 002.5 2.9 2 2 0 00-2.5-3zm8.7-43a2 2 0 002.5 3 2 2 0 00.2-2.8c-.6-.7-1.7-.8-2.7-.2zm-65.2-30a2 2 0 002.5 2.9 2 2 0 00.2-2.7c-.6-.8-1.9-.7-2.7-.2zm135.9 347.6a2 2 0 002.5 2.9 2 2 0 00.2-2.8c-.8-.5-2-.8-2.7-.1zm-117.2-56.9a2 2 0 002.5 2.9 2 2 0 00.2-2.7c-.8-.6-2-.8-2.7-.2zM315.7 96.6a2 2 0 002.5 2.9 2 2 0 00.2-2.7c-.6-.7-1.7-.8-2.7-.2zm-188.1 21.6c-.1.2-.3.6-.2.7.1.2.5.3.7.2.1-.1.3-.5.2-.7-.2-.1-.4-.4-.7-.2zM164 73c-.2.1-.3.5-.2.7.1.1.5.3.7.2.1-.2.3-.6.1-.7 0-.1-.3-.4-.6-.2zm-40.7-4c-1 .9-1.3 2.3-.4 3.3s2.4 1.3 3.4.4 1.2-2.4.3-3.4c-.9-1-2.3-1.2-3.3-.3zm31.1 129.8c-.4.3-.5.9 0 1.3.3.4.8.5 1.3.1.4-.4.4-1 0-1.3-.3-.5-.9-.5-1.3-.1zm-33.2-71.4c-.4.4-.5 1 0 1.4.3.4.8.5 1.3 0 .4-.3.4-.8 0-1.3-.3-.4-.9-.4-1.3 0zM163 52.7c-.5.4-.6 1-.2 1.4.4.4 1 .5 1.4 0 .4-.3.4-.8 0-1.3-.3-.4-.9-.4-1.3 0zm90.2 12.1c-.4.4-.5 1 0 1.4.3.4.8.5 1.3 0 .4-.3.4-.8 0-1.3-.3-.4-.9-.4-1.3 0zm-147.1 22a5.3 5.3 0 00-.5 7.4c1.9 2.2 5 2.7 7.4.6a5.3 5.3 0 00.6-7.4c-2-2-5.3-2.5-7.5-.6zm90.1 147.9a2.8 2.8 0 00-.2 4c1 1.2 2.7 1.4 4 .3 1.2-1 1.4-2.8.3-4-1.2-1-3-1.3-4-.3zM40.2 146a2.8 2.8 0 00-.3 4c1 1.2 2.8 1.5 4 .3 1.2-1 1.4-2.7.3-4a3.3 3.3 0 00-4-.3z" fill="#1B1B20" />
</svg>