<svg xmlns="http://www.w3.org/2000/svg" fill="none" height="629" width="594">
    <path d="M293.2 555.5c-62 22-141.8.5-211.6-74.7C23 418 8.7 307.3 91.5 198.5c44.1-58 152.8-87.1 186.5-4.4 14.1 34.8-45 103.1-18 155.6 26.9 52.5 64.7 48.7 85 96.4s-5.4 93-51.8 109.4z" fill="#fff" />
    <g fill="#1b1b20">
        <path d="M245.7 306a8 8 0 00-2.2 1c-1.6.7-3 1.8-4 3.3l-2 3.5-2.1 3.5c-1.6 2.4-3 5-4.5 7.3-1.4 2.2-2.4 4.4-3.7 6.6l-2.4 4.5-2.2 4.5a67.9 67.9 0 00-3.2 7.7c-.7 2-.9 4.3-.1 6.3.6 1.8 1.7 3.6 3.3 4.9a16.4 16.4 0 0010.7 3.7 48.5 48.5 0 009.9-.8l5.8-1.1h.9l3.2-.5c1.9-.2 3.7-.5 5.5-1l4.5-.9c3-.4 5.9-1 8.8-1.6l3.8-1c1.4-.5 2.8-1 4.1-1.7a15 15 0 004.7-4.3c1.2-2 1.7-3.9 1.7-6 0-2.2-.8-4.2-2-6.1a23 23 0 00-4-5.3c-1.2-1.3-2.6-2.4-3.8-3.6l-2-2-1.8-1.9a41.6 41.6 0 01-3.4-4.4l-2.2-3c-.8-1.1-1.7-2-2.7-3l-.6-.4c-.4-.6-.8-1-1.3-1.4l-1.1-1a9.3 9.3 0 00-2.1-1.9c-1.2-.8-2.4-1.6-3.7-2.2l-1.1-.5a8 8 0 00-3.4-1.1h.5l-3.4-.4-2.4.4zm-4.6 37.3l2.6-4.8c2.2-4.1 4.6-8.2 7.1-12.2.2 0 .3.2.4.3l.4.4 2 2.9a39 39 0 002.5 3.3l4.2 4.7 3 3 .6.6-.8.2-8.8 1.6-3.9.8-.2.1c-2.4.3-4.6.4-7 1l-3.3.6zm-53.6 193.1a2 2 0 002.5-3 2 2 0 00-2.7.3c-.5.8-.4 1.9.2 2.7zm-110-122.2c.7.7 2 .7 2.7-.1.6-.7.7-2-.2-2.7a2 2 0 00-2.5 2.9zM213.4 455c.8.7 2 .7 2.7-.1s.8-2-.1-2.7a2 2 0 00-2.5 2.9zm-43.6-3.3c.7.7 1.9.7 2.7-.1.6-.8.7-2-.2-2.7a2 2 0 00-2.7.1c-.6.8-.6 1.8.2 2.7zM131 429.1a2 2 0 002.5-2.8 2 2 0 00-2.7.1c-.5.9-.6 2.1.1 2.7zm-51-36.4c.7.6 2 .7 2.7-.2.7-.7.7-2-.1-2.7a2 2 0 00-2.6 2.9zm159.7-25.2c.7.7 2 .7 2.7-.1s.7-2-.1-2.7a2 2 0 00-2.7.1c-.7.8-.5 2 .1 2.7zm328-178.1a2 2 0 002.7-.2c.6-.7.7-2-.2-2.7a2 2 0 00-2.7.2c-.5.8-.5 2 .2 2.7zm-41.8 123.3a2 2 0 002.5-2.9 2 2 0 00-2.7.2c-.5.9-.6 2 .2 2.7zM157.1 376c.8.6 2 .6 2.7-.2.7-.7.7-2-.1-2.7a2 2 0 00-2.5 2.9zm141.3-206.2a2 2 0 002.6-2.9 2 2 0 00-2.7.2c-.6.7-.6 1.8.1 2.7zm-48.2 98.8c-.4 1-.6 1.8-.5 2.9-.1.6.2 1.4.2 2.2 0 .6.5 1 1 1.2l.6.2.3.3c.4.4.8.5 1.4.4 1.9.2 4 .5 5.8 0 1-.1 1.7-.7 2.2-1.6.5-.8.7-1.6.7-2.4 0-.6 0-1.4-.3-1.8l-.4-1.2a8.5 8.5 0 00-2.1-3.1c-.3-.3-.7-.6-1.1-.7a3 3 0 00-1.5-.3c-.7-.1-1.7 0-2.5.4a8.1 8.1 0 00-3.8 3.5zm4.6.2c.1-.1.4-.1.7-.4 0-.2.2 0 .4-.2l.4.1.1.2h.2c0 .2.2.3.4.5.1.4.4.6.6 1 .1.4.2 1 .5 1.5v.8h-.3l-4.2-.1v-1.9l.6-.9.6-.7zm-146.9 91.7c.4.3.9.4 1.5.3s1.1-.4 1.6-1l6.5-6.1c.8-1 1-2.4.2-3.2s-2-.5-3 .6c-2.3 2.2-4.3 4.2-6.6 6.2l-.1.2c-.9 1-.8 2.3-.1 3z" />
        <path d="M107.6 353.3l3.8 3.3c.5.5 1.1 1 1.7 1.8.4.4 1 .9 1.3 1.4l.3.3c.3.5.6.7 1.2.8.5.2 1 .1 1.5-.2s.8-.6.9-1.3c.1-.4 0-1-.2-1.4-.3-.6-.8-1-1-1.5l-1-.9-1.6-1.6-3.9-3.4a2 2 0 00-2.7.1c-1 .7-1.1 1.9-.3 2.6zm-12.3-51.8c.2.1.6.2.7.1s.2-.6 0-.7c0-.1-.5-.2-.6 0-.1 0-.2.5 0 .6zM91 314c.2.1.6.2.7.1s.2-.6 0-.7c0-.1-.5-.2-.6 0-.1 0-.2.5 0 .6zm10.7 106.2c.1.1.5.2.7 0 0 0 .2-.5 0-.6 0-.1-.5-.3-.6-.1-.2.1-.3.5-.1.7zm189.6-80.1c.1.1.5.2.7.1 0-.1.2-.6 0-.7 0-.1-.5-.2-.6 0-.1 0-.4.4-.1.6zm13.8-22.8c.2 0 .6.2.7 0 .2 0 .3-.5.1-.6-.1-.2-.5-.3-.7-.1 0 .1-.2.5 0 .7zm-6.3-14.4c.1.1.5.2.6 0 .2 0 .3-.5.1-.6-.1-.1-.5-.2-.6-.1-.2.1-.3.6-.1.7zm-19.8 9.7c.1 0 .6.2.7 0 .1 0 .2-.5 0-.6 0-.2-.5-.3-.6-.1-.1.1-.4.4-.1.7zm15 10.7c.1 0 .5.2.7 0 0 0 .2-.5 0-.6 0-.2-.5-.3-.6-.1-.2.1-.4.4-.1.7zm-197.4-.7c.2.2.6.3.7.1.1-.1.2-.5.1-.7-.1 0-.6-.2-.7 0-.1.1-.2.5 0 .6zm-24.7-18.3c.1.1.5.2.6 0 .2 0 .3-.5.1-.6-.1-.1-.5-.2-.6 0-.2 0-.4.3-.1.6zm5-4.5c.1.1.5.2.7 0 0 0 .2-.5 0-.6 0-.1-.5-.3-.6-.1-.2.1-.3.5-.1.7zm-.1 12.7c.1.1.6.3.7.1.1-.1.2-.5 0-.7 0-.1-.5-.2-.6 0-.1 0-.4.4-.1.6zM70 324c.1 0 .6.2.7 0 .1-.1.2-.5 0-.7 0 0-.5-.2-.6 0-.1.1-.2.5-.1.6zm113.5 195.3c1 .9 2.5 1 3.4-.1.9-1 1-2.5 0-3.4s-2.6-1-3.4.1c-1 1-1 2.5 0 3.4zM85.5 306c.5.3 1 .3 1.4-.1.4-.5.3-1 0-1.4-.5-.4-1-.3-1.4 0-.4.5-.2 1.2 0 1.4zM420 317c.4.5.9.4 1.3 0s.3-1 0-1.4c-.5-.3-1-.3-1.4.1-.4.5-.4 1 0 1.4zm-118.8 28.3c.4.4 1 .3 1.4 0 .3-.5.3-1-.1-1.4-.5-.4-1-.4-1.4 0-.4.5-.3 1 .1 1.4zM274 326.8c.4.4 1 .4 1.3 0 .4-.5.4-1 0-1.4-.5-.4-1-.3-1.4 0-.4.5-.3 1 0 1.4zm-91 61.6c.5.4 1 .3 1.4-.1s.4-1 0-1.3c-.5-.4-1-.4-1.4 0-.4.5-.4 1 0 1.4zM203.3 534a5.3 5.3 0 007.5-.3c1.9-2.2 2-5.4-.3-7.4a5.3 5.3 0 00-7.5.3c-1.7 2.3-1.8 5.5.3 7.4zm247.1-262.9c1 1 2.9 1 4-.3 1-1.1 1-2.9-.2-4-1.2-1-3-1-4 .2-1 1.3-1 3 .2 4.1zM290.2 589.6c1 1 2.9 1 4-.2 1-1.2 1-3-.2-4s-3-1.1-4 .2-.9 2.9.2 4z" />
    </g>
</svg>